<svg version="1.0" xmlns="http://www.w3.org/2000/svg"
 width="900.000000pt" height="354.000000pt" viewBox="0 0 900.000000 354.000000"
 preserveAspectRatio="xMidYMid meet">
<g transform="translate(0.000000,354.000000) scale(0.100000,-0.100000)"
fill="#44e384" stroke="none">
<path d="M1175 2913 c-106 -42 -196 -132 -234 -233 -29 -76 -32 -181 -29
-1012 l3 -853 27 -55 c55 -112 93 -155 188 -209 74 -42 -38 -41 3437 -41 2824
0 3320 2 3366 14 59 15 113 40 135 62 7 7 21 19 30 26 24 18 75 87 91 123 39
88 40 113 41 987 0 880 0 890 -41 983 -41 93 -127 174 -223 207 -48 17 -226
18 -3401 17 -3047 0 -3354 -1 -3390 -16z m2065 -511 c4 -406 7 -474 20 -482
11 -7 18 -5 25 7 34 57 158 148 234 173 75 24 178 26 236 5 22 -8 45 -15 52
-15 17 0 100 -58 139 -97 79 -79 124 -190 124 -307 0 -71 -24 -164 -49 -189
-6 -6 -11 -17 -11 -24 0 -23 -124 -139 -175 -163 -123 -58 -279 -54 -389 10
-62 35 -93 64 -137 124 -67 94 -68 84 -71 -430 l-3 -449 -995 -3 c-923 -2
-999 -1 -1045 15 -115 40 -194 130 -224 256 -8 33 -11 298 -11 892 0 892 0
895 46 984 37 73 128 145 204 161 19 4 483 7 1030 6 l995 -1 5 -473z m4750
448 c64 -35 122 -97 156 -166 l29 -59 3 -879 c2 -782 1 -885 -14 -935 -32
-111 -113 -198 -219 -234 -46 -16 -135 -17 -1165 -15 l-1115 3 -3 448 -2 447
-28 0 c-19 0 -44 -16 -88 -58 -95 -90 -172 -122 -292 -122 -116 0 -208 32
-277 97 -96 89 -155 215 -155 329 0 50 22 143 41 174 5 8 13 24 18 35 26 60
123 144 216 189 59 28 233 29 295 1 62 -28 127 -73 177 -123 27 -27 51 -42 68
-42 l25 0 0 463 c0 255 3 467 7 471 4 3 518 5 1142 4 l1136 -3 45 -25z"/>
<path d="M1435 2061 c-159 -42 -261 -220 -225 -393 17 -80 40 -125 87 -169 72
-66 96 -74 218 -73 90 1 118 5 157 23 l47 21 3 133 c2 72 1 138 -1 145 -2 8
-32 12 -102 12 -83 0 -101 -3 -106 -16 -12 -32 11 -49 70 -52 63 -3 65 -5 62
-111 -1 -83 -12 -91 -125 -91 -82 0 -90 2 -131 32 -75 54 -108 118 -108 215
-1 105 50 201 129 242 52 27 193 30 247 5 24 -12 37 -14 45 -6 14 14 0 69 -20
77 -26 11 -213 15 -247 6z"/>
<path d="M2614 2060 c-47 -11 -92 -47 -114 -90 -50 -98 2 -180 165 -259 91
-44 120 -75 120 -129 0 -36 -5 -48 -28 -68 -24 -21 -38 -24 -101 -24 -51 0
-87 6 -117 19 -50 23 -59 20 -59 -19 0 -39 29 -56 106 -65 83 -9 168 3 207 29
71 48 96 129 61 199 -26 50 -66 81 -177 137 -89 45 -110 68 -110 121 0 33 6
46 29 65 27 22 36 24 114 21 47 -2 95 -7 108 -12 22 -7 23 -6 20 31 -2 31 -8
40 -28 45 -33 9 -157 9 -196 -1z"/>
<path d="M1875 2048 c-3 -7 -4 -148 -3 -313 l3 -300 140 0 c134 0 142 1 195
28 94 49 134 99 163 203 21 76 21 99 0 187 -15 62 -24 77 -68 121 -28 28 -69
57 -91 65 -55 20 -332 27 -339 9z m272 -64 c113 -38 153 -98 153 -230 0 -140
-47 -209 -169 -247 -62 -20 -162 -22 -179 -5 -17 17 -17 469 0 486 17 17 139
15 195 -4z"/>
<path d="M6116 1984 c-3 -9 -6 -114 -6 -234 0 -201 1 -220 18 -229 32 -17 41
1 44 89 l3 85 65 5 c116 10 170 61 170 161 -1 98 -61 139 -204 139 -67 0 -85
-3 -90 -16z m211 -66 c18 -16 23 -32 23 -68 0 -61 -26 -86 -97 -96 -75 -9 -83
0 -83 96 0 42 3 80 7 83 3 4 33 7 67 7 48 0 64 -4 83 -22z"/>
<path d="M6517 1993 c-4 -3 -7 -111 -7 -240 l0 -233 25 0 c24 0 24 1 27 103
l3 102 125 0 125 0 3 -102 c3 -102 3 -103 28 -103 l24 0 -2 238 c-3 229 -4
237 -23 237 -18 0 -20 -8 -25 -100 l-5 -100 -125 0 -125 0 -3 103 c-2 90 -5
102 -21 102 -10 0 -21 -3 -24 -7z"/>
<path d="M7017 1994 c-4 -4 -7 -112 -7 -240 0 -176 3 -233 13 -237 6 -2 57 -5
113 -6 81 -2 103 1 114 14 23 28 -3 38 -89 36 -96 -2 -104 6 -99 102 l3 62 77
5 c79 5 105 17 95 44 -5 12 -26 16 -89 18 l-83 3 0 70 0 70 90 5 c88 5 90 6
90 30 0 25 0 25 -111 28 -60 1 -113 -1 -117 -4z"/>
<path d="M7367 1993 c-4 -3 -7 -112 -7 -240 l0 -234 23 3 c22 3 22 6 27 183 3
99 7 175 8 168 1 -6 8 -18 16 -26 8 -7 33 -58 56 -112 23 -54 46 -105 50 -114
5 -9 17 -35 27 -58 25 -59 47 -56 77 10 61 134 84 186 106 239 13 31 27 55 32
52 4 -3 8 -79 8 -169 0 -148 2 -165 18 -174 40 -21 43 -5 40 240 l-3 234 -23
3 c-23 3 -62 -22 -62 -40 0 -4 -13 -37 -30 -73 -73 -159 -88 -191 -94 -211 -4
-12 -15 -29 -25 -38 -18 -17 -20 -16 -26 6 -3 13 -13 37 -20 53 -8 17 -26 57
-40 90 -15 33 -35 78 -46 101 -10 22 -19 45 -19 51 0 6 -9 22 -21 37 -19 24
-57 35 -72 19z"/>
<path d="M5825 1861 c-68 -31 -105 -93 -105 -176 0 -129 90 -204 210 -175 53
13 80 40 57 58 -8 7 -18 6 -31 -4 -11 -8 -40 -14 -64 -14 -38 0 -50 5 -78 36
-19 20 -34 46 -34 59 0 24 1 24 118 27 l117 3 3 50 c3 63 -22 106 -77 135 -49
25 -65 25 -116 1z m119 -63 c19 -27 21 -64 4 -70 -24 -7 -161 7 -165 17 -2 6
10 25 26 43 25 27 37 32 75 32 35 0 48 -5 60 -22z"/>
</g>
</svg>